<svg id="visual" viewBox="0 0 900 600" width="900" height="600" xmlns="http://www.w3.org/2000/svg" xmlns:xlink="http://www.w3.org/1999/xlink" version="1.1"><rect x="0" y="0" width="900" height="600" fill="#002f52"></rect><defs><linearGradient id="grad1_0" x1="33.3%" y1="100%" x2="100%" y2="0%"><stop offset="20%" stop-color="#24c750" stop-opacity="1"></stop><stop offset="80%" stop-color="#24c750" stop-opacity="1"></stop></linearGradient></defs><defs><linearGradient id="grad1_1" x1="33.3%" y1="100%" x2="100%" y2="0%"><stop offset="20%" stop-color="#24c750" stop-opacity="1"></stop><stop offset="80%" stop-color="#00b46e" stop-opacity="1"></stop></linearGradient></defs><defs><linearGradient id="grad1_2" x1="33.3%" y1="100%" x2="100%" y2="0%"><stop offset="20%" stop-color="#009f84" stop-opacity="1"></stop><stop offset="80%" stop-color="#00b46e" stop-opacity="1"></stop></linearGradient></defs><defs><linearGradient id="grad1_3" x1="33.3%" y1="100%" x2="100%" y2="0%"><stop offset="20%" stop-color="#009f84" stop-opacity="1"></stop><stop offset="80%" stop-color="#00898f" stop-opacity="1"></stop></linearGradient></defs><defs><linearGradient id="grad1_4" x1="33.3%" y1="100%" x2="100%" y2="0%"><stop offset="20%" stop-color="#00728f" stop-opacity="1"></stop><stop offset="80%" stop-color="#00898f" stop-opacity="1"></stop></linearGradient></defs><defs><linearGradient id="grad1_5" x1="33.3%" y1="100%" x2="100%" y2="0%"><stop offset="20%" stop-color="#00728f" stop-opacity="1"></stop><stop offset="80%" stop-color="#005b83" stop-opacity="1"></stop></linearGradient></defs><defs><linearGradient id="grad1_6" x1="33.3%" y1="100%" x2="100%" y2="0%"><stop offset="20%" stop-color="#00446e" stop-opacity="1"></stop><stop offset="80%" stop-color="#005b83" stop-opacity="1"></stop></linearGradient></defs><defs><linearGradient id="grad1_7" x1="33.3%" y1="100%" x2="100%" y2="0%"><stop offset="20%" stop-color="#00446e" stop-opacity="1"></stop><stop offset="80%" stop-color="#002f52" stop-opacity="1"></stop></linearGradient></defs><defs><linearGradient id="grad2_0" x1="0%" y1="100%" x2="66.7%" y2="0%"><stop offset="20%" stop-color="#24c750" stop-opacity="1"></stop><stop offset="80%" stop-color="#24c750" stop-opacity="1"></stop></linearGradient></defs><defs><linearGradient id="grad2_1" x1="0%" y1="100%" x2="66.7%" y2="0%"><stop offset="20%" stop-color="#00b46e" stop-opacity="1"></stop><stop offset="80%" stop-color="#24c750" stop-opacity="1"></stop></linearGradient></defs><defs><linearGradient id="grad2_2" x1="0%" y1="100%" x2="66.7%" y2="0%"><stop offset="20%" stop-color="#00b46e" stop-opacity="1"></stop><stop offset="80%" stop-color="#009f84" stop-opacity="1"></stop></linearGradient></defs><defs><linearGradient id="grad2_3" x1="0%" y1="100%" x2="66.7%" y2="0%"><stop offset="20%" stop-color="#00898f" stop-opacity="1"></stop><stop offset="80%" stop-color="#009f84" stop-opacity="1"></stop></linearGradient></defs><defs><linearGradient id="grad2_4" x1="0%" y1="100%" x2="66.7%" y2="0%"><stop offset="20%" stop-color="#00898f" stop-opacity="1"></stop><stop offset="80%" stop-color="#00728f" stop-opacity="1"></stop></linearGradient></defs><defs><linearGradient id="grad2_5" x1="0%" y1="100%" x2="66.7%" y2="0%"><stop offset="20%" stop-color="#005b83" stop-opacity="1"></stop><stop offset="80%" stop-color="#00728f" stop-opacity="1"></stop></linearGradient></defs><defs><linearGradient id="grad2_6" x1="0%" y1="100%" x2="66.7%" y2="0%"><stop offset="20%" stop-color="#005b83" stop-opacity="1"></stop><stop offset="80%" stop-color="#00446e" stop-opacity="1"></stop></linearGradient></defs><defs><linearGradient id="grad2_7" x1="0%" y1="100%" x2="66.7%" y2="0%"><stop offset="20%" stop-color="#002f52" stop-opacity="1"></stop><stop offset="80%" stop-color="#00446e" stop-opacity="1"></stop></linearGradient></defs><g transform="translate(900, 600)"><path d="M-459.7 0C-449.9 -84.2 -440 -168.4 -398.1 -229.9C-356.2 -291.3 -282.2 -330.1 -210.5 -364.6C-138.8 -399.1 -69.4 -429.4 0 -459.7L0 0Z" fill="#003960"></path><path d="M-402.2 0C-393.6 -73.7 -385 -147.3 -348.4 -201.1C-311.7 -254.9 -246.9 -288.8 -184.2 -319C-121.4 -349.2 -60.7 -375.7 0 -402.2L0 0Z" fill="#005079"></path><path d="M-344.8 0C-337.4 -63.1 -330 -126.3 -298.6 -172.4C-267.2 -218.5 -211.7 -247.6 -157.9 -273.4C-104.1 -299.3 -52 -322.1 0 -344.8L0 0Z" fill="#00678b"></path><path d="M-287.3 0C-281.2 -52.6 -275 -105.2 -248.8 -143.7C-222.6 -182.1 -176.4 -206.3 -131.6 -227.9C-86.7 -249.4 -43.4 -268.4 0 -287.3L0 0Z" fill="#007e91"></path><path d="M-229.9 0C-224.9 -42.1 -220 -84.2 -199.1 -114.9C-178.1 -145.7 -141.1 -165 -105.3 -182.3C-69.4 -199.6 -34.7 -214.7 0 -229.9L0 0Z" fill="#00948b"></path><path d="M-172.4 0C-168.7 -31.6 -165 -63.1 -149.3 -86.2C-133.6 -109.2 -105.8 -123.8 -78.9 -136.7C-52 -149.7 -26 -161 0 -172.4L0 0Z" fill="#00aa7a"></path><path d="M-114.9 0C-112.5 -21 -110 -42.1 -99.5 -57.5C-89.1 -72.8 -70.6 -82.5 -52.6 -91.1C-34.7 -99.8 -17.3 -107.4 0 -114.9L0 0Z" fill="#00be60"></path><path d="M-57.5 0C-56.2 -10.5 -55 -21 -49.8 -28.7C-44.5 -36.4 -35.3 -41.3 -26.3 -45.6C-17.3 -49.9 -8.7 -53.7 0 -57.5L0 0Z" fill="#24c750"></path></g><g transform="translate(0, 0)"><path d="M459.7 0C448.1 81.2 436.6 162.4 398.1 229.9C359.7 297.3 294.3 351.1 223.5 387.1C152.7 423.1 76.3 441.4 0 459.7L0 0Z" fill="#003960"></path><path d="M402.2 0C392.1 71 382 142.1 348.4 201.1C314.7 260.2 257.5 307.2 195.6 338.7C133.6 370.2 66.8 386.2 0 402.2L0 0Z" fill="#005079"></path><path d="M344.8 0C336.1 60.9 327.4 121.8 298.6 172.4C269.8 223 220.8 263.3 167.6 290.3C114.5 317.4 57.2 331.1 0 344.8L0 0Z" fill="#00678b"></path><path d="M287.3 0C280.1 50.7 272.9 101.5 248.8 143.7C224.8 185.8 184 219.4 139.7 241.9C95.4 264.5 47.7 275.9 0 287.3L0 0Z" fill="#007e91"></path><path d="M229.9 0C224.1 40.6 218.3 81.2 199.1 114.9C179.8 148.7 147.2 175.5 111.8 193.6C76.3 211.6 38.2 220.7 0 229.9L0 0Z" fill="#00948b"></path><path d="M172.4 0C168.1 30.4 163.7 60.9 149.3 86.2C134.9 111.5 110.4 131.7 83.8 145.2C57.2 158.7 28.6 165.5 0 172.4L0 0Z" fill="#00aa7a"></path><path d="M114.9 0C112 20.3 109.1 40.6 99.5 57.5C89.9 74.3 73.6 87.8 55.9 96.8C38.2 105.8 19.1 110.4 0 114.9L0 0Z" fill="#00be60"></path><path d="M57.5 0C56 10.1 54.6 20.3 49.8 28.7C45 37.2 36.8 43.9 27.9 48.4C19.1 52.9 9.5 55.2 0 57.5L0 0Z" fill="#24c750"></path></g></svg>