<svg id="visual" viewBox="0 0 900 600" width="900" height="600" xmlns="http://www.w3.org/2000/svg" xmlns:xlink="http://www.w3.org/1999/xlink" version="1.1"><path d="M0 377L25 370C50 363 100 349 150 323.8C200 298.7 250 262.3 300 242.8C350 223.3 400 220.7 450 223.7C500 226.7 550 235.3 600 262.2C650 289 700 334 750 349C800 364 850 349 875 341.5L900 334L900 601L875 601C850 601 800 601 750 601C700 601 650 601 600 601C550 601 500 601 450 601C400 601 350 601 300 601C250 601 200 601 150 601C100 601 50 601 25 601L0 601Z" fill="#f25cd2"></path><path d="M0 356L25 359.7C50 363.3 100 370.7 150 358.7C200 346.7 250 315.3 300 299.5C350 283.7 400 283.3 450 301.7C500 320 550 357 600 376.5C650 396 700 398 750 391C800 384 850 368 875 360L900 352L900 601L875 601C850 601 800 601 750 601C700 601 650 601 600 601C550 601 500 601 450 601C400 601 350 601 300 601C250 601 200 601 150 601C100 601 50 601 25 601L0 601Z" fill="#e448b0"></path><path d="M0 402L25 411.2C50 420.3 100 438.7 150 447.8C200 457 250 457 300 453.5C350 450 400 443 450 422.8C500 402.7 550 369.3 600 358C650 346.7 700 357.3 750 359.5C800 361.7 850 355.3 875 352.2L900 349L900 601L875 601C850 601 800 601 750 601C700 601 650 601 600 601C550 601 500 601 450 601C400 601 350 601 300 601C250 601 200 601 150 601C100 601 50 601 25 601L0 601Z" fill="#d3358f"></path><path d="M0 465L25 459.7C50 454.3 100 443.7 150 446.5C200 449.3 250 465.7 300 473.7C350 481.7 400 481.3 450 468C500 454.7 550 428.3 600 418.2C650 408 700 414 750 418C800 422 850 424 875 425L900 426L900 601L875 601C850 601 800 601 750 601C700 601 650 601 600 601C550 601 500 601 450 601C400 601 350 601 300 601C250 601 200 601 150 601C100 601 50 601 25 601L0 601Z" fill="#c02371"></path><path d="M0 525L25 526.2C50 527.3 100 529.7 150 531.8C200 534 250 536 300 529.7C350 523.3 400 508.7 450 507.7C500 506.7 550 519.3 600 514.2C650 509 700 486 750 485.5C800 485 850 507 875 518L900 529L900 601L875 601C850 601 800 601 750 601C700 601 650 601 600 601C550 601 500 601 450 601C400 601 350 601 300 601C250 601 200 601 150 601C100 601 50 601 25 601L0 601Z" fill="#ab1256"></path><path d="M0 521L25 518.5C50 516 100 511 150 512.8C200 514.7 250 523.3 300 533C350 542.7 400 553.3 450 551.2C500 549 550 534 600 532.8C650 531.7 700 544.3 750 548.2C800 552 850 547 875 544.5L900 542L900 601L875 601C850 601 800 601 750 601C700 601 650 601 600 601C550 601 500 601 450 601C400 601 350 601 300 601C250 601 200 601 150 601C100 601 50 601 25 601L0 601Z" fill="#95003e"></path></svg>