<svg id="visual" viewBox="0 0 900 600" width="900" height="600" xmlns="http://www.w3.org/2000/svg" xmlns:xlink="http://www.w3.org/1999/xlink" version="1.1"><path d="M0 170L21.5 157.8C43 145.7 86 121.3 128.8 122.2C171.7 123 214.3 149 257.2 161.2C300 173.3 343 171.7 385.8 159.8C428.7 148 471.3 126 514.2 139.3C557 152.7 600 201.3 642.8 210.3C685.7 219.3 728.3 188.7 771.2 179.8C814 171 857 184 878.5 190.5L900 197L900 601L878.5 601C857 601 814 601 771.2 601C728.3 601 685.7 601 642.8 601C600 601 557 601 514.2 601C471.3 601 428.7 601 385.8 601C343 601 300 601 257.2 601C214.3 601 171.7 601 128.8 601C86 601 43 601 21.5 601L0 601Z" fill="#4facf7"></path><path d="M0 203L21.5 197.3C43 191.7 86 180.3 128.8 173.8C171.7 167.3 214.3 165.7 257.2 184C300 202.3 343 240.7 385.8 252C428.7 263.3 471.3 247.7 514.2 224.8C557 202 600 172 642.8 162.8C685.7 153.7 728.3 165.3 771.2 170.8C814 176.3 857 175.7 878.5 175.3L900 175L900 601L878.5 601C857 601 814 601 771.2 601C728.3 601 685.7 601 642.8 601C600 601 557 601 514.2 601C471.3 601 428.7 601 385.8 601C343 601 300 601 257.2 601C214.3 601 171.7 601 128.8 601C86 601 43 601 21.5 601L0 601Z" fill="#33a1fb"></path><path d="M0 338L21.5 327.5C43 317 86 296 128.8 278.7C171.7 261.3 214.3 247.7 257.2 234.3C300 221 343 208 385.8 225.3C428.7 242.7 471.3 290.3 514.2 294C557 297.7 600 257.3 642.8 239.2C685.7 221 728.3 225 771.2 235.2C814 245.3 857 261.7 878.5 269.8L900 278L900 601L878.5 601C857 601 814 601 771.2 601C728.3 601 685.7 601 642.8 601C600 601 557 601 514.2 601C471.3 601 428.7 601 385.8 601C343 601 300 601 257.2 601C214.3 601 171.7 601 128.8 601C86 601 43 601 21.5 601L0 601Z" fill="#1394fe"></path><path d="M0 276L21.5 281.8C43 287.7 86 299.3 128.8 311.2C171.7 323 214.3 335 257.2 341.3C300 347.7 343 348.3 385.8 338.2C428.7 328 471.3 307 514.2 294.7C557 282.3 600 278.7 642.8 282C685.7 285.3 728.3 295.7 771.2 291.2C814 286.7 857 267.3 878.5 257.7L900 248L900 601L878.5 601C857 601 814 601 771.2 601C728.3 601 685.7 601 642.8 601C600 601 557 601 514.2 601C471.3 601 428.7 601 385.8 601C343 601 300 601 257.2 601C214.3 601 171.7 601 128.8 601C86 601 43 601 21.5 601L0 601Z" fill="#0087ff"></path><path d="M0 316L21.5 315.2C43 314.3 86 312.7 128.8 315C171.7 317.3 214.3 323.7 257.2 340.3C300 357 343 384 385.8 398.5C428.7 413 471.3 415 514.2 402C557 389 600 361 642.8 348.2C685.7 335.3 728.3 337.7 771.2 352C814 366.3 857 392.7 878.5 405.8L900 419L900 601L878.5 601C857 601 814 601 771.2 601C728.3 601 685.7 601 642.8 601C600 601 557 601 514.2 601C471.3 601 428.7 601 385.8 601C343 601 300 601 257.2 601C214.3 601 171.7 601 128.8 601C86 601 43 601 21.5 601L0 601Z" fill="#0079ff"></path><path d="M0 427L21.5 420.3C43 413.7 86 400.3 128.8 389.3C171.7 378.3 214.3 369.7 257.2 371.8C300 374 343 387 385.8 397.5C428.7 408 471.3 416 514.2 413C557 410 600 396 642.8 387.7C685.7 379.3 728.3 376.7 771.2 376.3C814 376 857 378 878.5 379L900 380L900 601L878.5 601C857 601 814 601 771.2 601C728.3 601 685.7 601 642.8 601C600 601 557 601 514.2 601C471.3 601 428.7 601 385.8 601C343 601 300 601 257.2 601C214.3 601 171.7 601 128.8 601C86 601 43 601 21.5 601L0 601Z" fill="#0069ff"></path><path d="M0 452L21.5 452C43 452 86 452 128.8 448.3C171.7 444.7 214.3 437.3 257.2 436.5C300 435.7 343 441.3 385.8 439.2C428.7 437 471.3 427 514.2 422.8C557 418.7 600 420.3 642.8 423.7C685.7 427 728.3 432 771.2 440.8C814 449.7 857 462.3 878.5 468.7L900 475L900 601L878.5 601C857 601 814 601 771.2 601C728.3 601 685.7 601 642.8 601C600 601 557 601 514.2 601C471.3 601 428.7 601 385.8 601C343 601 300 601 257.2 601C214.3 601 171.7 601 128.8 601C86 601 43 601 21.5 601L0 601Z" fill="#2856ff"></path><path d="M0 471L21.5 479.8C43 488.7 86 506.3 128.8 508.2C171.7 510 214.3 496 257.2 494.2C300 492.3 343 502.7 385.8 507.8C428.7 513 471.3 513 514.2 511.2C557 509.3 600 505.7 642.8 497.3C685.7 489 728.3 476 771.2 472.2C814 468.3 857 473.7 878.5 476.3L900 479L900 601L878.5 601C857 601 814 601 771.2 601C728.3 601 685.7 601 642.8 601C600 601 557 601 514.2 601C471.3 601 428.7 601 385.8 601C343 601 300 601 257.2 601C214.3 601 171.7 601 128.8 601C86 601 43 601 21.5 601L0 601Z" fill="#493dff"></path><path d="M0 557L21.5 552.8C43 548.7 86 540.3 128.8 534.5C171.7 528.7 214.3 525.3 257.2 531.3C300 537.3 343 552.7 385.8 557C428.7 561.3 471.3 554.7 514.2 549C557 543.3 600 538.7 642.8 541C685.7 543.3 728.3 552.7 771.2 553.7C814 554.7 857 547.3 878.5 543.7L900 540L900 601L878.5 601C857 601 814 601 771.2 601C728.3 601 685.7 601 642.8 601C600 601 557 601 514.2 601C471.3 601 428.7 601 385.8 601C343 601 300 601 257.2 601C214.3 601 171.7 601 128.8 601C86 601 43 601 21.5 601L0 601Z" fill="#6600ff"></path></svg>