<svg id="visual" viewBox="0 0 900 600" width="900" height="600" xmlns="http://www.w3.org/2000/svg" xmlns:xlink="http://www.w3.org/1999/xlink" version="1.1"><rect x="0" y="0" width="900" height="600" fill="#21001c"></rect><defs><linearGradient id="grad1_0" x1="33.3%" y1="0%" x2="100%" y2="100%"><stop offset="20%" stop-color="#fa3c3c" stop-opacity="1"></stop><stop offset="80%" stop-color="#fa3c3c" stop-opacity="1"></stop></linearGradient></defs><defs><linearGradient id="grad1_1" x1="33.3%" y1="0%" x2="100%" y2="100%"><stop offset="20%" stop-color="#fa3c3c" stop-opacity="1"></stop><stop offset="80%" stop-color="#b21348" stop-opacity="1"></stop></linearGradient></defs><defs><linearGradient id="grad1_2" x1="33.3%" y1="0%" x2="100%" y2="100%"><stop offset="20%" stop-color="#640b3c" stop-opacity="1"></stop><stop offset="80%" stop-color="#b21348" stop-opacity="1"></stop></linearGradient></defs><defs><linearGradient id="grad1_3" x1="33.3%" y1="0%" x2="100%" y2="100%"><stop offset="20%" stop-color="#640b3c" stop-opacity="1"></stop><stop offset="80%" stop-color="#21001c" stop-opacity="1"></stop></linearGradient></defs><defs><linearGradient id="grad2_0" x1="0%" y1="0%" x2="66.7%" y2="100%"><stop offset="20%" stop-color="#fa3c3c" stop-opacity="1"></stop><stop offset="80%" stop-color="#fa3c3c" stop-opacity="1"></stop></linearGradient></defs><defs><linearGradient id="grad2_1" x1="0%" y1="0%" x2="66.7%" y2="100%"><stop offset="20%" stop-color="#b21348" stop-opacity="1"></stop><stop offset="80%" stop-color="#fa3c3c" stop-opacity="1"></stop></linearGradient></defs><defs><linearGradient id="grad2_2" x1="0%" y1="0%" x2="66.7%" y2="100%"><stop offset="20%" stop-color="#b21348" stop-opacity="1"></stop><stop offset="80%" stop-color="#640b3c" stop-opacity="1"></stop></linearGradient></defs><defs><linearGradient id="grad2_3" x1="0%" y1="0%" x2="66.7%" y2="100%"><stop offset="20%" stop-color="#21001c" stop-opacity="1"></stop><stop offset="80%" stop-color="#640b3c" stop-opacity="1"></stop></linearGradient></defs><g transform="translate(900, 0)"><path d="M0 459.7C-80 447.5 -160.1 435.2 -229.9 398.1C-299.6 361 -359.2 299 -395.8 228.5C-432.4 158 -446 79 -459.7 0L0 0Z" fill="#40092e"></path><path d="M0 344.8C-60 335.6 -120.1 326.4 -172.4 298.6C-224.7 270.8 -269.4 224.3 -296.8 171.4C-324.3 118.5 -334.5 59.2 -344.8 0L0 0Z" fill="#8b0c45"></path><path d="M0 229.9C-40 223.7 -80 217.6 -114.9 199.1C-149.8 180.5 -179.6 149.5 -197.9 114.3C-216.2 79 -223 39.5 -229.9 0L0 0Z" fill="#d82445"></path><path d="M0 114.9C-20 111.9 -40 108.8 -57.5 99.5C-74.9 90.3 -89.8 74.8 -98.9 57.1C-108.1 39.5 -111.5 19.7 -114.9 0L0 0Z" fill="#fa3c3c"></path></g><g transform="translate(0, 600)"><path d="M0 -459.7C81 -448 161.9 -436.3 229.9 -398.1C297.8 -359.9 352.7 -295.3 388.8 -224.5C425 -153.7 442.3 -76.9 459.7 0L0 0Z" fill="#40092e"></path><path d="M0 -344.8C60.7 -336 121.4 -327.2 172.4 -298.6C223.3 -270 264.5 -221.5 291.6 -168.4C318.7 -115.3 331.8 -57.6 344.8 0L0 0Z" fill="#8b0c45"></path><path d="M0 -229.9C40.5 -224 81 -218.2 114.9 -199.1C148.9 -180 176.4 -147.6 194.4 -112.3C212.5 -76.9 221.2 -38.4 229.9 0L0 0Z" fill="#d82445"></path><path d="M0 -114.9C20.2 -112 40.5 -109.1 57.5 -99.5C74.4 -90 88.2 -73.8 97.2 -56.1C106.2 -38.4 110.6 -19.2 114.9 0L0 0Z" fill="#fa3c3c"></path></g></svg>