<svg id="visual" viewBox="0 0 900 600" width="900" height="600" xmlns="http://www.w3.org/2000/svg" xmlns:xlink="http://www.w3.org/1999/xlink" version="1.1"><rect x="0" y="0" width="900" height="600" fill="#001220"></rect><defs><linearGradient id="grad1_0" x1="33.3%" y1="0%" x2="100%" y2="100%"><stop offset="20%" stop-color="#fbae3c" stop-opacity="1"></stop><stop offset="80%" stop-color="#fbae3c" stop-opacity="1"></stop></linearGradient></defs><defs><linearGradient id="grad1_1" x1="33.3%" y1="0%" x2="100%" y2="100%"><stop offset="20%" stop-color="#fbae3c" stop-opacity="1"></stop><stop offset="80%" stop-color="#f48350" stop-opacity="1"></stop></linearGradient></defs><defs><linearGradient id="grad1_2" x1="33.3%" y1="0%" x2="100%" y2="100%"><stop offset="20%" stop-color="#d96162" stop-opacity="1"></stop><stop offset="80%" stop-color="#f48350" stop-opacity="1"></stop></linearGradient></defs><defs><linearGradient id="grad1_3" x1="33.3%" y1="0%" x2="100%" y2="100%"><stop offset="20%" stop-color="#d96162" stop-opacity="1"></stop><stop offset="80%" stop-color="#af4b6d" stop-opacity="1"></stop></linearGradient></defs><defs><linearGradient id="grad1_4" x1="33.3%" y1="0%" x2="100%" y2="100%"><stop offset="20%" stop-color="#7c3e6b" stop-opacity="1"></stop><stop offset="80%" stop-color="#af4b6d" stop-opacity="1"></stop></linearGradient></defs><defs><linearGradient id="grad1_5" x1="33.3%" y1="0%" x2="100%" y2="100%"><stop offset="20%" stop-color="#7c3e6b" stop-opacity="1"></stop><stop offset="80%" stop-color="#49335c" stop-opacity="1"></stop></linearGradient></defs><defs><linearGradient id="grad1_6" x1="33.3%" y1="0%" x2="100%" y2="100%"><stop offset="20%" stop-color="#1d2540" stop-opacity="1"></stop><stop offset="80%" stop-color="#49335c" stop-opacity="1"></stop></linearGradient></defs><defs><linearGradient id="grad1_7" x1="33.3%" y1="0%" x2="100%" y2="100%"><stop offset="20%" stop-color="#1d2540" stop-opacity="1"></stop><stop offset="80%" stop-color="#001220" stop-opacity="1"></stop></linearGradient></defs><defs><linearGradient id="grad2_0" x1="0%" y1="0%" x2="66.7%" y2="100%"><stop offset="20%" stop-color="#fbae3c" stop-opacity="1"></stop><stop offset="80%" stop-color="#fbae3c" stop-opacity="1"></stop></linearGradient></defs><defs><linearGradient id="grad2_1" x1="0%" y1="0%" x2="66.7%" y2="100%"><stop offset="20%" stop-color="#f48350" stop-opacity="1"></stop><stop offset="80%" stop-color="#fbae3c" stop-opacity="1"></stop></linearGradient></defs><defs><linearGradient id="grad2_2" x1="0%" y1="0%" x2="66.7%" y2="100%"><stop offset="20%" stop-color="#f48350" stop-opacity="1"></stop><stop offset="80%" stop-color="#d96162" stop-opacity="1"></stop></linearGradient></defs><defs><linearGradient id="grad2_3" x1="0%" y1="0%" x2="66.7%" y2="100%"><stop offset="20%" stop-color="#af4b6d" stop-opacity="1"></stop><stop offset="80%" stop-color="#d96162" stop-opacity="1"></stop></linearGradient></defs><defs><linearGradient id="grad2_4" x1="0%" y1="0%" x2="66.7%" y2="100%"><stop offset="20%" stop-color="#af4b6d" stop-opacity="1"></stop><stop offset="80%" stop-color="#7c3e6b" stop-opacity="1"></stop></linearGradient></defs><defs><linearGradient id="grad2_5" x1="0%" y1="0%" x2="66.7%" y2="100%"><stop offset="20%" stop-color="#49335c" stop-opacity="1"></stop><stop offset="80%" stop-color="#7c3e6b" stop-opacity="1"></stop></linearGradient></defs><defs><linearGradient id="grad2_6" x1="0%" y1="0%" x2="66.7%" y2="100%"><stop offset="20%" stop-color="#49335c" stop-opacity="1"></stop><stop offset="80%" stop-color="#1d2540" stop-opacity="1"></stop></linearGradient></defs><defs><linearGradient id="grad2_7" x1="0%" y1="0%" x2="66.7%" y2="100%"><stop offset="20%" stop-color="#001220" stop-opacity="1"></stop><stop offset="80%" stop-color="#1d2540" stop-opacity="1"></stop></linearGradient></defs><g transform="translate(900, 0)"><path d="M0 459.7C-77.9 444.2 -155.9 428.7 -226.5 392.3C-297.1 355.9 -360.5 298.7 -398.1 229.9C-435.8 161 -447.7 80.5 -459.7 0L0 0Z" fill="#0c1c30"></path><path d="M0 402.2C-68.2 388.7 -136.4 375.1 -198.2 343.3C-260 311.4 -315.4 261.4 -348.4 201.1C-381.3 140.9 -391.8 70.4 -402.2 0L0 0Z" fill="#312c4f"></path><path d="M0 344.8C-58.4 333.1 -116.9 321.5 -169.9 294.2C-222.9 267 -270.4 224 -298.6 172.4C-326.8 120.7 -335.8 60.4 -344.8 0L0 0Z" fill="#623965"></path><path d="M0 287.3C-48.7 277.6 -97.4 267.9 -141.6 245.2C-185.7 222.5 -225.3 186.7 -248.8 143.7C-272.4 100.6 -279.8 50.3 -287.3 0L0 0Z" fill="#96446e"></path><path d="M0 229.9C-39 222.1 -77.9 214.3 -113.2 196.2C-148.6 178 -180.2 149.4 -199.1 114.9C-217.9 80.5 -223.9 40.2 -229.9 0L0 0Z" fill="#c55469"></path><path d="M0 172.4C-29.2 166.6 -58.4 160.8 -84.9 147.1C-111.4 133.5 -135.2 112 -149.3 86.2C-163.4 60.4 -167.9 30.2 -172.4 0L0 0Z" fill="#e9705a"></path><path d="M0 114.9C-19.5 111 -39 107.2 -56.6 98.1C-74.3 89 -90.1 74.7 -99.5 57.5C-108.9 40.2 -111.9 20.1 -114.9 0L0 0Z" fill="#fa9845"></path><path d="M0 57.5C-9.7 55.5 -19.5 53.6 -28.3 49C-37.1 44.5 -45.1 37.3 -49.8 28.7C-54.5 20.1 -56 10.1 -57.5 0L0 0Z" fill="#fbae3c"></path></g><g transform="translate(0, 600)"><path d="M0 -459.7C71.5 -433.1 143.1 -406.5 214.5 -371.5C285.9 -336.5 357.3 -293.2 398.1 -229.9C439 -166.5 449.3 -83.3 459.7 0L0 0Z" fill="#0c1c30"></path><path d="M0 -402.2C62.6 -379 125.2 -355.7 187.7 -325.1C250.2 -294.5 312.6 -256.5 348.4 -201.1C384.1 -145.7 393.2 -72.9 402.2 0L0 0Z" fill="#312c4f"></path><path d="M0 -344.8C53.6 -324.8 107.3 -304.9 160.9 -278.6C214.5 -252.4 268 -219.9 298.6 -172.4C329.2 -124.9 337 -62.5 344.8 0L0 0Z" fill="#623965"></path><path d="M0 -287.3C44.7 -270.7 89.4 -254.1 134.1 -232.2C178.7 -210.3 223.3 -183.2 248.8 -143.7C274.4 -104.1 280.8 -52 287.3 0L0 0Z" fill="#96446e"></path><path d="M0 -229.9C35.8 -216.6 71.5 -203.3 107.2 -185.8C143 -168.3 178.6 -146.6 199.1 -114.9C219.5 -83.3 224.7 -41.6 229.9 0L0 0Z" fill="#c55469"></path><path d="M0 -172.4C26.8 -162.4 53.6 -152.4 80.4 -139.3C107.2 -126.2 134 -109.9 149.3 -86.2C164.6 -62.5 168.5 -31.2 172.4 0L0 0Z" fill="#e9705a"></path><path d="M0 -114.9C17.9 -108.3 35.8 -101.6 53.6 -92.9C71.5 -84.1 89.3 -73.3 99.5 -57.5C109.7 -41.6 112.3 -20.8 114.9 0L0 0Z" fill="#fa9845"></path><path d="M0 -57.5C8.9 -54.1 17.9 -50.8 26.8 -46.4C35.7 -42.1 44.7 -36.6 49.8 -28.7C54.9 -20.8 56.2 -10.4 57.5 0L0 0Z" fill="#fbae3c"></path></g></svg>