<?xml version="1.0" standalone="no"?><svg xmlns="http://www.w3.org/2000/svg" viewBox="0 0 1440 320"><path fill="#0099ff" fill-opacity="1" d="M0,224L26.7,197.3C53.3,171,107,117,160,80C213.3,43,267,21,320,42.7C373.3,64,427,128,480,128C533.3,128,587,64,640,37.3C693.3,11,747,21,800,37.3C853.3,53,907,75,960,96C1013.3,117,1067,139,1120,138.7C1173.3,139,1227,117,1280,96C1333.3,75,1387,53,1413,42.7L1440,32L1440,320L1413.3,320C1386.7,320,1333,320,1280,320C1226.7,320,1173,320,1120,320C1066.7,320,1013,320,960,320C906.7,320,853,320,800,320C746.7,320,693,320,640,320C586.7,320,533,320,480,320C426.7,320,373,320,320,320C266.7,320,213,320,160,320C106.7,320,53,320,27,320L0,320Z"></path></svg>