<svg id="visual" viewBox="0 0 900 600" width="900" height="600" xmlns="http://www.w3.org/2000/svg" xmlns:xlink="http://www.w3.org/1999/xlink" version="1.1"><path d="M0 281L21.5 270.5C43 260 86 239 128.8 225.7C171.7 212.3 214.3 206.7 257.2 216.7C300 226.7 343 252.3 385.8 254.5C428.7 256.7 471.3 235.3 514.2 231.7C557 228 600 242 642.8 256C685.7 270 728.3 284 771.2 282.3C814 280.7 857 263.3 878.5 254.7L900 246L900 601L878.5 601C857 601 814 601 771.2 601C728.3 601 685.7 601 642.8 601C600 601 557 601 514.2 601C471.3 601 428.7 601 385.8 601C343 601 300 601 257.2 601C214.3 601 171.7 601 128.8 601C86 601 43 601 21.5 601L0 601Z" fill="#69fa8c"></path><path d="M0 292L21.5 302.3C43 312.7 86 333.3 128.8 333.5C171.7 333.7 214.3 313.3 257.2 312.7C300 312 343 331 385.8 346.7C428.7 362.3 471.3 374.7 514.2 377.5C557 380.3 600 373.7 642.8 369.3C685.7 365 728.3 363 771.2 345.2C814 327.3 857 293.7 878.5 276.8L900 260L900 601L878.5 601C857 601 814 601 771.2 601C728.3 601 685.7 601 642.8 601C600 601 557 601 514.2 601C471.3 601 428.7 601 385.8 601C343 601 300 601 257.2 601C214.3 601 171.7 601 128.8 601C86 601 43 601 21.5 601L0 601Z" fill="#50e68a"></path><path d="M0 428L21.5 419.3C43 410.7 86 393.3 128.8 376.8C171.7 360.3 214.3 344.7 257.2 348.2C300 351.7 343 374.3 385.8 389.7C428.7 405 471.3 413 514.2 415.8C557 418.7 600 416.3 642.8 416.8C685.7 417.3 728.3 420.7 771.2 420.5C814 420.3 857 416.7 878.5 414.8L900 413L900 601L878.5 601C857 601 814 601 771.2 601C728.3 601 685.7 601 642.8 601C600 601 557 601 514.2 601C471.3 601 428.7 601 385.8 601C343 601 300 601 257.2 601C214.3 601 171.7 601 128.8 601C86 601 43 601 21.5 601L0 601Z" fill="#39d187"></path><path d="M0 449L21.5 438C43 427 86 405 128.8 405.3C171.7 405.7 214.3 428.3 257.2 440.2C300 452 343 453 385.8 444.8C428.7 436.7 471.3 419.3 514.2 408.3C557 397.3 600 392.7 642.8 388.8C685.7 385 728.3 382 771.2 389.7C814 397.3 857 415.7 878.5 424.8L900 434L900 601L878.5 601C857 601 814 601 771.2 601C728.3 601 685.7 601 642.8 601C600 601 557 601 514.2 601C471.3 601 428.7 601 385.8 601C343 601 300 601 257.2 601C214.3 601 171.7 601 128.8 601C86 601 43 601 21.5 601L0 601Z" fill="#23bd82"></path><path d="M0 460L21.5 470C43 480 86 500 128.8 504.8C171.7 509.7 214.3 499.3 257.2 489.7C300 480 343 471 385.8 465.8C428.7 460.7 471.3 459.3 514.2 456.2C557 453 600 448 642.8 447.7C685.7 447.3 728.3 451.7 771.2 452C814 452.3 857 448.7 878.5 446.8L900 445L900 601L878.5 601C857 601 814 601 771.2 601C728.3 601 685.7 601 642.8 601C600 601 557 601 514.2 601C471.3 601 428.7 601 385.8 601C343 601 300 601 257.2 601C214.3 601 171.7 601 128.8 601C86 601 43 601 21.5 601L0 601Z" fill="#0fa87b"></path><path d="M0 526L21.5 525.8C43 525.7 86 525.3 128.8 527.2C171.7 529 214.3 533 257.2 531.3C300 529.7 343 522.3 385.8 517C428.7 511.7 471.3 508.3 514.2 513.2C557 518 600 531 642.8 539.8C685.7 548.7 728.3 553.3 771.2 556.5C814 559.7 857 561.3 878.5 562.2L900 563L900 601L878.5 601C857 601 814 601 771.2 601C728.3 601 685.7 601 642.8 601C600 601 557 601 514.2 601C471.3 601 428.7 601 385.8 601C343 601 300 601 257.2 601C214.3 601 171.7 601 128.8 601C86 601 43 601 21.5 601L0 601Z" fill="#009473"></path></svg>