<svg id="visual" viewBox="0 0 900 600" width="900" height="600" xmlns="http://www.w3.org/2000/svg" xmlns:xlink="http://www.w3.org/1999/xlink" version="1.1"><g fill="#FCE4EC"><circle r="63" cx="795" cy="197"></circle><circle r="4" cx="393" cy="509"></circle><circle r="19" cx="395" cy="23"></circle><circle r="6" cx="611" cy="148"></circle><circle r="21" cx="844" cy="74"></circle><circle r="21" cx="68" cy="141"></circle><circle r="3" cx="448" cy="351"></circle><circle r="11" cx="173" cy="549"></circle><circle r="23" cx="655" cy="350"></circle><circle r="27" cx="314" cy="247"></circle><circle r="26" cx="894" cy="381"></circle><circle r="56" cx="683" cy="547"></circle><circle r="60" cx="267" cy="379"></circle><circle r="44" cx="109" cy="414"></circle><circle r="16" cx="844" cy="587"></circle><circle r="49" cx="682" cy="5"></circle><circle r="34" cx="216" cy="20"></circle><circle r="5" cx="559" cy="503"></circle><circle r="32" cx="475" cy="184"></circle><circle r="3" cx="28" cy="583"></circle><circle r="49" cx="67" cy="14"></circle><circle r="49" cx="785" cy="472"></circle><circle r="58" cx="4" cy="254"></circle><circle r="27" cx="180" cy="239"></circle><circle r="30" cx="311" cy="121"></circle><circle r="31" cx="544" cy="39"></circle></g></svg>