<svg id="visual" viewBox="0 0 900 600" width="900" height="600" xmlns="http://www.w3.org/2000/svg" xmlns:xlink="http://www.w3.org/1999/xlink" version="1.1"><g fill="#E0F2F1"><circle r="14" cx="16" cy="36"></circle><circle r="9" cx="47" cy="349"></circle><circle r="8" cx="560" cy="12"></circle><circle r="12" cx="493" cy="113"></circle><circle r="8" cx="813" cy="275"></circle><circle r="8" cx="2" cy="468"></circle><circle r="9" cx="512" cy="14"></circle><circle r="11" cx="634" cy="241"></circle><circle r="10" cx="426" cy="498"></circle><circle r="12" cx="42" cy="463"></circle><circle r="12" cx="146" cy="339"></circle><circle r="9" cx="340" cy="458"></circle><circle r="9" cx="344" cy="176"></circle><circle r="8" cx="894" cy="529"></circle><circle r="8" cx="740" cy="94"></circle><circle r="9" cx="553" cy="199"></circle><circle r="12" cx="556" cy="44"></circle><circle r="11" cx="482" cy="356"></circle><circle r="12" cx="244" cy="401"></circle><circle r="10" cx="49" cy="215"></circle><circle r="9" cx="378" cy="408"></circle><circle r="11" cx="195" cy="286"></circle><circle r="8" cx="130" cy="462"></circle><circle r="9" cx="409" cy="39"></circle><circle r="12" cx="48" cy="379"></circle><circle r="11" cx="607" cy="443"></circle><circle r="8" cx="657" cy="565"></circle><circle r="8" cx="301" cy="426"></circle><circle r="9" cx="13" cy="223"></circle><circle r="12" cx="276" cy="283"></circle><circle r="9" cx="840" cy="468"></circle><circle r="12" cx="328" cy="105"></circle><circle r="9" cx="189" cy="223"></circle><circle r="11" cx="469" cy="433"></circle><circle r="12" cx="576" cy="371"></circle><circle r="11" cx="241" cy="257"></circle><circle r="9" cx="831" cy="215"></circle><circle r="9" cx="604" cy="547"></circle><circle r="10" cx="71" cy="44"></circle><circle r="9" cx="93" cy="388"></circle><circle r="10" cx="173" cy="401"></circle><circle r="8" cx="436" cy="166"></circle><circle r="9" cx="827" cy="371"></circle><circle r="9" cx="821" cy="425"></circle></g></svg>