<svg id="visual" viewBox="0 0 900 600" width="900" height="600" xmlns="http://www.w3.org/2000/svg" xmlns:xlink="http://www.w3.org/1999/xlink" version="1.1"><rect x="0" y="0" width="900" height="600" fill="#7c00ff"></rect><defs><linearGradient id="grad1_0" x1="33.3%" y1="100%" x2="100%" y2="0%"><stop offset="20%" stop-color="#cbcef7" stop-opacity="1"></stop><stop offset="80%" stop-color="#cbcef7" stop-opacity="1"></stop></linearGradient></defs><defs><linearGradient id="grad1_1" x1="33.3%" y1="100%" x2="100%" y2="0%"><stop offset="20%" stop-color="#cbcef7" stop-opacity="1"></stop><stop offset="80%" stop-color="#abaaff" stop-opacity="1"></stop></linearGradient></defs><defs><linearGradient id="grad1_2" x1="33.3%" y1="100%" x2="100%" y2="0%"><stop offset="20%" stop-color="#9384ff" stop-opacity="1"></stop><stop offset="80%" stop-color="#abaaff" stop-opacity="1"></stop></linearGradient></defs><defs><linearGradient id="grad1_3" x1="33.3%" y1="100%" x2="100%" y2="0%"><stop offset="20%" stop-color="#9384ff" stop-opacity="1"></stop><stop offset="80%" stop-color="#8258ff" stop-opacity="1"></stop></linearGradient></defs><defs><linearGradient id="grad1_4" x1="33.3%" y1="100%" x2="100%" y2="0%"><stop offset="20%" stop-color="#7c00ff" stop-opacity="1"></stop><stop offset="80%" stop-color="#8258ff" stop-opacity="1"></stop></linearGradient></defs><defs><linearGradient id="grad2_0" x1="0%" y1="100%" x2="66.7%" y2="0%"><stop offset="20%" stop-color="#cbcef7" stop-opacity="1"></stop><stop offset="80%" stop-color="#cbcef7" stop-opacity="1"></stop></linearGradient></defs><defs><linearGradient id="grad2_1" x1="0%" y1="100%" x2="66.7%" y2="0%"><stop offset="20%" stop-color="#abaaff" stop-opacity="1"></stop><stop offset="80%" stop-color="#cbcef7" stop-opacity="1"></stop></linearGradient></defs><defs><linearGradient id="grad2_2" x1="0%" y1="100%" x2="66.7%" y2="0%"><stop offset="20%" stop-color="#abaaff" stop-opacity="1"></stop><stop offset="80%" stop-color="#9384ff" stop-opacity="1"></stop></linearGradient></defs><defs><linearGradient id="grad2_3" x1="0%" y1="100%" x2="66.7%" y2="0%"><stop offset="20%" stop-color="#8258ff" stop-opacity="1"></stop><stop offset="80%" stop-color="#9384ff" stop-opacity="1"></stop></linearGradient></defs><defs><linearGradient id="grad2_4" x1="0%" y1="100%" x2="66.7%" y2="0%"><stop offset="20%" stop-color="#8258ff" stop-opacity="1"></stop><stop offset="80%" stop-color="#7c00ff" stop-opacity="1"></stop></linearGradient></defs><g transform="translate(900, 600)"><path d="M-540.8 0C-459.8 -55.4 -378.8 -110.9 -343.8 -198.5C-308.9 -286.1 -320 -406 -270.4 -468.4C-220.8 -530.8 -110.4 -535.8 0 -540.8L0 0Z" fill="#7e3bff"></path><path d="M-432.7 0C-367.8 -44.3 -303 -88.7 -275 -158.8C-247.1 -228.9 -256 -324.8 -216.3 -374.7C-176.6 -424.6 -88.3 -428.7 0 -432.7L0 0Z" fill="#896fff"></path><path d="M-324.5 0C-275.9 -33.3 -227.3 -66.5 -206.3 -119.1C-185.3 -171.7 -192 -243.6 -162.2 -281C-132.5 -318.5 -66.2 -321.5 0 -324.5L0 0Z" fill="#9e98ff"></path><path d="M-216.3 0C-183.9 -22.2 -151.5 -44.3 -137.5 -79.4C-123.5 -114.5 -128 -162.4 -108.2 -187.3C-88.3 -212.3 -44.2 -214.3 0 -216.3L0 0Z" fill="#babcfd"></path><path d="M-108.2 0C-92 -11.1 -75.8 -22.2 -68.8 -39.7C-61.8 -57.2 -64 -81.2 -54.1 -93.7C-44.2 -106.2 -22.1 -107.2 0 -108.2L0 0Z" fill="#cbcef7"></path></g><g transform="translate(0, 0)"><path d="M540.8 0C526.5 94.3 512.3 188.7 468.4 270.4C424.5 352.1 351 421.2 268 464.2C185 507.2 92.5 524 0 540.8L0 0Z" fill="#7e3bff"></path><path d="M432.7 0C421.2 75.5 409.8 151 374.7 216.3C339.6 281.7 280.8 337 214.4 371.4C148 405.7 74 419.2 0 432.7L0 0Z" fill="#896fff"></path><path d="M324.5 0C315.9 56.6 307.4 113.2 281 162.2C254.7 211.3 210.6 252.7 160.8 278.5C111 304.3 55.5 314.4 0 324.5L0 0Z" fill="#9e98ff"></path><path d="M216.3 0C210.6 37.7 204.9 75.5 187.3 108.2C169.8 140.9 140.4 168.5 107.2 185.7C74 202.9 37 209.6 0 216.3L0 0Z" fill="#babcfd"></path><path d="M108.2 0C105.3 18.9 102.5 37.7 93.7 54.1C84.9 70.4 70.2 84.2 53.6 92.8C37 101.4 18.5 104.8 0 108.2L0 0Z" fill="#cbcef7"></path></g></svg>