<svg id="visual" viewBox="0 0 900 600" width="900" height="600" xmlns="http://www.w3.org/2000/svg" xmlns:xlink="http://www.w3.org/1999/xlink" version="1.1"><rect x="0" y="0" width="900" height="600" fill="#F7770F"></rect><path d="M0 428L21.5 440.2C43 452.3 86 476.7 128.8 475.8C171.7 475 214.3 449 257.2 436.8C300 424.7 343 426.3 385.8 438.2C428.7 450 471.3 472 514.2 458.7C557 445.3 600 396.7 642.8 387.7C685.7 378.7 728.3 409.3 771.2 418.2C814 427 857 414 878.5 407.5L900 401L900 0L878.5 0C857 0 814 0 771.2 0C728.3 0 685.7 0 642.8 0C600 0 557 0 514.2 0C471.3 0 428.7 0 385.8 0C343 0 300 0 257.2 0C214.3 0 171.7 0 128.8 0C86 0 43 0 21.5 0L0 0Z" fill="#f7770f"></path><path d="M0 395L21.5 400.7C43 406.3 86 417.7 128.8 424.2C171.7 430.7 214.3 432.3 257.2 414C300 395.7 343 357.3 385.8 346C428.7 334.7 471.3 350.3 514.2 373.2C557 396 600 426 642.8 435.2C685.7 444.3 728.3 432.7 771.2 427.2C814 421.7 857 422.3 878.5 422.7L900 423L900 0L878.5 0C857 0 814 0 771.2 0C728.3 0 685.7 0 642.8 0C600 0 557 0 514.2 0C471.3 0 428.7 0 385.8 0C343 0 300 0 257.2 0C214.3 0 171.7 0 128.8 0C86 0 43 0 21.5 0L0 0Z" fill="#fa8936"></path><path d="M0 260L21.5 270.5C43 281 86 302 128.8 319.3C171.7 336.7 214.3 350.3 257.2 363.7C300 377 343 390 385.8 372.7C428.7 355.3 471.3 307.7 514.2 304C557 300.3 600 340.7 642.8 358.8C685.7 377 728.3 373 771.2 362.8C814 352.7 857 336.3 878.5 328.2L900 320L900 0L878.5 0C857 0 814 0 771.2 0C728.3 0 685.7 0 642.8 0C600 0 557 0 514.2 0C471.3 0 428.7 0 385.8 0C343 0 300 0 257.2 0C214.3 0 171.7 0 128.8 0C86 0 43 0 21.5 0L0 0Z" fill="#fd9a54"></path><path d="M0 322L21.5 316.2C43 310.3 86 298.7 128.8 286.8C171.7 275 214.3 263 257.2 256.7C300 250.3 343 249.7 385.8 259.8C428.7 270 471.3 291 514.2 303.3C557 315.7 600 319.3 642.8 316C685.7 312.7 728.3 302.3 771.2 306.8C814 311.3 857 330.7 878.5 340.3L900 350L900 0L878.5 0C857 0 814 0 771.2 0C728.3 0 685.7 0 642.8 0C600 0 557 0 514.2 0C471.3 0 428.7 0 385.8 0C343 0 300 0 257.2 0C214.3 0 171.7 0 128.8 0C86 0 43 0 21.5 0L0 0Z" fill="#ffab70"></path><path d="M0 282L21.5 282.8C43 283.7 86 285.3 128.8 283C171.7 280.7 214.3 274.3 257.2 257.7C300 241 343 214 385.8 199.5C428.7 185 471.3 183 514.2 196C557 209 600 237 642.8 249.8C685.7 262.7 728.3 260.3 771.2 246C814 231.7 857 205.3 878.5 192.2L900 179L900 0L878.5 0C857 0 814 0 771.2 0C728.3 0 685.7 0 642.8 0C600 0 557 0 514.2 0C471.3 0 428.7 0 385.8 0C343 0 300 0 257.2 0C214.3 0 171.7 0 128.8 0C86 0 43 0 21.5 0L0 0Z" fill="#ffbb8c"></path><path d="M0 171L21.5 177.7C43 184.3 86 197.7 128.8 208.7C171.7 219.7 214.3 228.3 257.2 226.2C300 224 343 211 385.8 200.5C428.7 190 471.3 182 514.2 185C557 188 600 202 642.8 210.3C685.7 218.7 728.3 221.3 771.2 221.7C814 222 857 220 878.5 219L900 218L900 0L878.5 0C857 0 814 0 771.2 0C728.3 0 685.7 0 642.8 0C600 0 557 0 514.2 0C471.3 0 428.7 0 385.8 0C343 0 300 0 257.2 0C214.3 0 171.7 0 128.8 0C86 0 43 0 21.5 0L0 0Z" fill="#ffcca8"></path><path d="M0 146L21.5 146C43 146 86 146 128.8 149.7C171.7 153.3 214.3 160.7 257.2 161.5C300 162.3 343 156.7 385.8 158.8C428.7 161 471.3 171 514.2 175.2C557 179.3 600 177.7 642.8 174.3C685.7 171 728.3 166 771.2 157.2C814 148.3 857 135.7 878.5 129.3L900 123L900 0L878.5 0C857 0 814 0 771.2 0C728.3 0 685.7 0 642.8 0C600 0 557 0 514.2 0C471.3 0 428.7 0 385.8 0C343 0 300 0 257.2 0C214.3 0 171.7 0 128.8 0C86 0 43 0 21.5 0L0 0Z" fill="#ffddc5"></path><path d="M0 127L21.5 118.2C43 109.3 86 91.7 128.8 89.8C171.7 88 214.3 102 257.2 103.8C300 105.7 343 95.3 385.8 90.2C428.7 85 471.3 85 514.2 86.8C557 88.7 600 92.3 642.8 100.7C685.7 109 728.3 122 771.2 125.8C814 129.7 857 124.3 878.5 121.7L900 119L900 0L878.5 0C857 0 814 0 771.2 0C728.3 0 685.7 0 642.8 0C600 0 557 0 514.2 0C471.3 0 428.7 0 385.8 0C343 0 300 0 257.2 0C214.3 0 171.7 0 128.8 0C86 0 43 0 21.5 0L0 0Z" fill="#ffeee2"></path><path d="M0 41L21.5 45.2C43 49.3 86 57.7 128.8 63.5C171.7 69.3 214.3 72.7 257.2 66.7C300 60.7 343 45.3 385.8 41C428.7 36.7 471.3 43.3 514.2 49C557 54.7 600 59.3 642.8 57C685.7 54.7 728.3 45.3 771.2 44.3C814 43.3 857 50.7 878.5 54.3L900 58L900 0L878.5 0C857 0 814 0 771.2 0C728.3 0 685.7 0 642.8 0C600 0 557 0 514.2 0C471.3 0 428.7 0 385.8 0C343 0 300 0 257.2 0C214.3 0 171.7 0 128.8 0C86 0 43 0 21.5 0L0 0Z" fill="#ffffff"></path></svg>